# xmcd
#
# Track frame offsets:
#	150
#	9570
#	20263
#	34246
#	43557
#	55678
#	104801
#	169053
#	192382
#	240058
# Disc length: 3905 seconds
# Revision: 1
# Processed by: cddbd v1.5.2PL0 Copyright (c) Steve Scherf et al.
#
# Submitted via: libkcddb 0.31
#
DISCID=760f3f0a
DTITLE=Thierry Escaich - Chorus
DYEAR=2003
DGENRE=Moderne
TTITLE0=Quatuor Ludwig - Scènes de bal (2000) pour quatuor à cordes - Vivacissimo
TTITLE1=Quatuor Ludwig - Scènes de bal (2000) pour quatuor à cordes - Moderato energico (Tango)
TTITLE2=Quatuor Ludwig - Scènes de bal (2000) pour quatuor à cordes - Andante
TTITLE3=Quatuor Ludwig - Scènes de bal (2000) pour quatuor à cordes - Allegro Moderato
TTITLE4=Quatuor Ludwig - Scènes de bal (2000) pour quatuor à cordes - Allegro
TTITLE5=Claire-Marie Le Guay - Les Litanies de l'ombre (1990) pour piano seul
TTITLE6=Quatuor Ludwig - Thierry Escaich - La Ronde (2000) quintette pour piano et cordes
TTITLE7=Claire-Marie Le Guay - Jeux de Doubles (2001) pour piano seul
TTITLE8=Xavier Phillips - Thierry Escaich - Nocturne (1997) pour violoncelle et piano
TTITLE9=Bertrand Chamayou - Quatuor Ludwig - Florent Héau - Chorus (1998) pour clarinette, quatuor à cordes et piano
EXTD=
EXTT0=
EXTT1=
EXTT2=
EXTT3=
EXTT4=
EXTT5=
EXTT6=
EXTT7=
EXTT8=
EXTT9=
PLAYORDER=
